<?xml version="1.0" encoding="UTF-8"?>
<!-- Generator: Adobe Illustrator 27.7.0, SVG Export Plug-In . SVG Version: 6.00 Build 0)  -->
<svg xmlns="http://www.w3.org/2000/svg" xmlns:xlink="http://www.w3.org/1999/xlink" version="1.1" id="Layer_2_00000067209556651424960900000005469902581774634140_" x="0px" y="0px" viewBox="0 0 239.8 84.4" style="enable-background:new 0 0 239.8 84.4;" xml:space="preserve">
<style type="text/css">
	.st0{fill:#FFFFFF;}
	.st1{fill:#FFFFFF;}
</style>
<g>
	<path fill="#FFFFFF" d="M66.4,22.8l-2.9,6.5c-0.3,0.7-0.6,1.2-1,1.5c-0.4,0.3-0.9,0.5-1.4,0.5c-0.2,0-0.5,0-0.7-0.1s-0.4-0.2-0.6-0.3l0.7-1.7   c0.2,0.1,0.4,0.2,0.6,0.2c0.3,0,0.5-0.1,0.6-0.3l0.1-0.3l-3.7-6.1h2.2l2.4,4.2l1.7-4.2H66.4z"></path>
	<path fill="#FFFFFF" d="M72.4,31.3v-6.7h-3v6.7h-1.9v-8.5h6.9v8.5H72.4z"></path>
	<path fill="#FFFFFF" d="M78.2,31.3h-1.9v-8.5c0.1,0,0.6,0,1.2,0c0.7,0,1.1,0,1.4,0c1.2,0,2.1,0.3,2.6,0.8c0.5,0.5,0.8,1.2,0.8,2   c0,0.8-0.3,1.5-0.9,2c-0.6,0.6-1.3,0.8-2.3,0.8c-0.4,0-0.7,0-0.9,0V31.3z M79,24.6c0,0-0.3,0-0.9,0v1.9c0.3,0,0.6,0.1,0.9,0.1   c0.3,0,0.6-0.1,0.8-0.2c0.2-0.2,0.3-0.4,0.3-0.8C80.2,24.9,79.8,24.6,79,24.6z"></path>
	<path fill="#FFFFFF" d="M81.8,31.3l3.5-8.5H87l3.5,8.5h-2.1l-0.7-1.8h-3.4l-0.7,1.8H81.8z M86.1,25.3l-1,2.4h1.9L86.1,25.3z"></path>
	<path fill="#FFFFFF" d="M91.4,31.3v-8.5c0.9,0,1.8-0.1,2.6-0.1c1,0,1.7,0.2,2.2,0.6s0.7,0.9,0.7,1.5c0,0.8-0.3,1.5-1,1.9v0   c0.3,0.1,0.6,0.4,0.9,0.7c0.2,0.3,0.3,0.7,0.3,1.3c0,0.9-0.3,1.5-0.9,2c-0.6,0.4-1.4,0.7-2.3,0.7C92.8,31.4,91.9,31.3,91.4,31.3z    M94,24.6c-0.1,0-0.3,0-0.6,0v1.5H94c0.6,0,0.9-0.3,0.9-0.8c0-0.2-0.1-0.4-0.3-0.6C94.5,24.6,94.3,24.6,94,24.6z M94.1,27.9h-0.8   v1.6c0.2,0,0.4,0.1,0.7,0.1c0.8,0,1.1-0.3,1.1-0.9C95.2,28.1,94.8,27.9,94.1,27.9z"></path>
	<path fill="#FFFFFF" d="M103.5,31.3v-6.7h-1.9l-0.2,1.6c-0.1,1.1-0.3,2-0.5,2.7c-0.2,0.7-0.4,1.2-0.7,1.6s-0.6,0.6-1,0.7s-0.8,0.1-1.3,0l0-1.9   c0.2,0,0.3,0,0.4,0c0.1,0,0.3-0.1,0.4-0.3c0.1-0.2,0.3-0.4,0.4-0.8s0.2-0.8,0.3-1.5c0.1-0.6,0.2-1.4,0.2-2.3l0.1-1.7h5.6v8.5H103.5   z"></path>
	<path fill="#FFFFFF" d="M107.4,31.3v-8.5h5.1v1.8h-3.1v1.5h2.7v1.8h-2.7v1.5h3.2v1.8H107.4z"></path>
	<path fill="#FFFFFF" d="M119.2,31.3v-3.4h-3.1v3.4h-1.9v-8.5h1.9v3.3h3.1v-3.3h1.9v8.5H119.2z"></path>
	<path fill="#FFFFFF" d="M124.8,31.3h-1.7v-8.5h1.9v5.3l3.8-5.3h1.7v8.5h-1.9V26L124.8,31.3z"></path>
	<path fill="#FFFFFF" d="M132.5,31.3v-8.5h5.1v1.8h-3.1v1.5h2.7v1.8h-2.7v1.5h3.2v1.8H132.5z"></path>
	<path fill="#FFFFFF" d="M60.2,41.4v-1.8h3.3c-0.2-0.5-0.5-0.9-1-1.2c-0.5-0.3-1-0.4-1.7-0.4c-0.7,0-1.3,0.2-1.9,0.6l-0.7-1.5c0.8-0.7,1.8-1,3.1-1   c1.2,0,2.3,0.4,3.1,1.2c0.8,0.8,1.2,1.9,1.2,3.2c0,1.4-0.4,2.4-1.2,3.2c-0.8,0.8-1.9,1.2-3.3,1.2c-0.6,0-1.2-0.1-1.7-0.3   c-0.5-0.2-0.9-0.4-1.2-0.6l0.8-1.6c0.6,0.5,1.2,0.7,2,0.7c0.6,0,1.1-0.1,1.6-0.4s0.8-0.7,0.9-1.3H60.2z"></path>
	<path fill="#FFFFFF" d="M67,44.8v-8.5H69V40l2.8-3.7h2.3l-3.2,3.9l3.5,4.6h-2.5L69,40.7v4.1H67z"></path>
	<path fill="#FFFFFF" d="M80.7,42.5l0.7,1.5c-0.3,0.3-0.6,0.5-1.2,0.7c-0.5,0.2-1.1,0.3-1.6,0.3c-1.3,0-2.4-0.4-3.2-1.2s-1.2-1.9-1.2-3.2   c0-1.3,0.4-2.3,1.2-3.2c0.8-0.8,1.9-1.2,3.3-1.2c0.5,0,1,0.1,1.5,0.2c0.5,0.2,0.8,0.4,1.1,0.6l-0.9,1.5c-0.6-0.3-1.2-0.5-1.7-0.5   c-0.7,0-1.3,0.2-1.7,0.7c-0.5,0.5-0.7,1.1-0.7,1.9c0,0.8,0.2,1.4,0.7,1.9c0.5,0.5,1.1,0.7,1.9,0.7C79.5,43.1,80.1,42.9,80.7,42.5z"></path>
	<path fill="#FFFFFF" d="M87.4,44.8v-6.7h-3v6.7h-1.9v-8.5h6.9v8.5H87.4z"></path>
	<path fill="#FFFFFF" d="M91.3,44.8v-8.5h5.1v1.8h-3.1v1.5H96v1.8h-2.7V43h3.2v1.8H91.3z"></path>
	<path fill="#FFFFFF" d="M100,44.8h-1.9v-8.5c0.1,0,0.6,0,1.2,0c0.7,0,1.1,0,1.4,0c1.2,0,2.1,0.3,2.6,0.8c0.5,0.5,0.8,1.2,0.8,2   c0,0.8-0.3,1.5-0.9,2c-0.6,0.6-1.3,0.8-2.3,0.8c-0.4,0-0.7,0-0.9,0V44.8z M100.9,38.1c0,0-0.3,0-0.9,0v1.9c0.3,0,0.6,0.1,0.9,0.1   c0.3,0,0.6-0.1,0.8-0.2c0.2-0.2,0.3-0.4,0.3-0.8C102.1,38.4,101.7,38.1,100.9,38.1z"></path>
	<path fill="#FFFFFF" d="M107.2,44.8h-1.7v-8.5h1.9v5.3l3.8-5.3h1.7v8.5H111v-5.3L107.2,44.8z"></path>
	<path fill="#FFFFFF" d="M114.9,44.8v-8.5h2l2.6,3.6l2.5-3.6h1.8v8.5h-1.9v-5.4l-2.4,3.3h-0.3l-2.4-3.3v5.4H114.9z"></path>
	<path fill="#FFFFFF" d="M125.7,44.8v-8.5h5.1v1.8h-3.1v1.5h2.7v1.8h-2.7V43h3.2v1.8H125.7z"></path>
	<path fill="#FFFFFF" d="M137.5,44.8v-3.4h-3.1v3.4h-1.9v-8.5h1.9v3.3h3.1v-3.3h1.9v8.5H137.5z"></path>
	<path fill="#FFFFFF" d="M140.5,38.1v-1.8h7.1v1.8H145v6.7H143v-6.7H140.5z"></path>
	<path fill="#FFFFFF" d="M146.7,44.8l3.5-8.5h1.7l3.5,8.5h-2.1l-0.7-1.8h-3.4l-0.7,1.8H146.7z M151.1,38.8l-1,2.4h1.9L151.1,38.8z"></path>
	<path fill="#FFFFFF" d="M161.2,44.8v-6.7h-1.9l-0.2,1.6c-0.1,1.1-0.3,2-0.5,2.7c-0.2,0.7-0.4,1.2-0.7,1.6s-0.6,0.6-1,0.7s-0.8,0.1-1.3,0l0-1.9   c0.2,0,0.3,0,0.4,0c0.1,0,0.3-0.1,0.4-0.3c0.1-0.2,0.3-0.4,0.4-0.8s0.2-0.8,0.3-1.5c0.1-0.6,0.2-1.4,0.2-2.3l0.1-1.7h5.6v8.5H161.2   z"></path>
	<path fill="#FFFFFF" d="M167,36.3v2.7c0.3,0,0.5,0,0.8,0c1.1,0,1.9,0.3,2.4,0.8c0.5,0.5,0.8,1.2,0.8,2.1c0,0.9-0.3,1.7-0.9,2.2   c-0.6,0.6-1.5,0.8-2.7,0.8c-0.3,0-0.8,0-1.3,0c-0.5,0-0.9,0-1,0v-8.5H167z M167.6,40.7c-0.1,0-0.3,0-0.6,0.1V43c0.3,0,0.5,0,0.6,0   c0.9,0,1.3-0.4,1.3-1.2C169,41.1,168.5,40.7,167.6,40.7z"></path>
	<path fill="#FFFFFF" d="M177.4,44.8v-3.4h-3.1v3.4h-1.9v-8.5h1.9v3.3h3.1v-3.3h1.9v8.5H177.4z"></path>
	<path fill="#FFFFFF" d="M180.7,40.5c0-1.3,0.4-2.3,1.3-3.1s1.9-1.3,3.3-1.3c1.3,0,2.4,0.4,3.3,1.2c0.8,0.8,1.3,1.9,1.3,3.2c0,1.3-0.4,2.3-1.3,3.2   s-1.9,1.2-3.2,1.2c-1.3,0-2.4-0.4-3.3-1.2C181.1,42.9,180.7,41.9,180.7,40.5z M182.8,40.5c0,0.7,0.2,1.3,0.7,1.8   c0.5,0.5,1.1,0.7,1.7,0.7c0.8,0,1.4-0.2,1.8-0.7c0.4-0.5,0.6-1.1,0.6-1.9c0-0.8-0.2-1.4-0.7-1.9c-0.5-0.5-1.1-0.7-1.8-0.7   c-0.7,0-1.3,0.2-1.8,0.7C183,39.1,182.8,39.8,182.8,40.5z"></path>
	<path fill="#FFFFFF" d="M192.8,44.8h-1.7v-8.5h1.9v5.3l3.8-5.3h1.7v8.5h-1.9v-5.3L192.8,44.8z M192.4,34.1h1.8c0,0.2,0.1,0.4,0.2,0.5   c0.1,0.1,0.3,0.1,0.6,0.1c0.3,0,0.4,0,0.5-0.1c0.1-0.1,0.2-0.2,0.2-0.5h1.8c0,0.6-0.2,1.1-0.7,1.4c-0.5,0.4-1.1,0.5-1.8,0.5   c-0.8,0-1.4-0.2-1.9-0.5C192.7,35.2,192.4,34.7,192.4,34.1z"></path>
	<path fill="#FFFFFF" d="M61.5,58.4c-1.4,0-2.4-0.5-3.1-1.5l1.1-1.3c0.6,0.7,1.3,1,1.9,1c0.3,0,0.6-0.1,0.8-0.2c0.2-0.1,0.4-0.4,0.4-0.7   c0-0.3-0.1-0.5-0.3-0.6c-0.2-0.2-0.6-0.2-1-0.2h-0.8V53h0.7c0.3,0,0.5-0.1,0.7-0.2c0.2-0.1,0.3-0.3,0.3-0.6c0-0.3-0.1-0.5-0.3-0.6   c-0.2-0.1-0.4-0.2-0.7-0.2c-0.6,0-1.1,0.3-1.5,0.9L58.7,51c0.3-0.4,0.7-0.8,1.2-1s1.1-0.4,1.7-0.4c0.8,0,1.4,0.2,1.9,0.6   c0.5,0.4,0.7,1,0.7,1.8c0,0.7-0.4,1.3-1.1,1.8v0c0.9,0.3,1.4,1,1.4,2c0,0.8-0.3,1.4-0.9,1.8C63,58.2,62.3,58.4,61.5,58.4z"></path>
	<path fill="#FFFFFF" d="M65,58.3l3.5-8.5h1.7l3.5,8.5h-2.1L71,56.5h-3.4L67,58.3H65z M69.4,52.3l-1,2.4h1.9L69.4,52.3z"></path>
	<path fill="#FFFFFF" d="M80.3,56l0.7,1.5c-0.3,0.3-0.6,0.5-1.2,0.7c-0.5,0.2-1.1,0.3-1.6,0.3c-1.3,0-2.4-0.4-3.2-1.2s-1.2-1.9-1.2-3.2   c0-1.3,0.4-2.3,1.2-3.2c0.8-0.8,1.9-1.2,3.3-1.2c0.5,0,1,0.1,1.5,0.2c0.5,0.2,0.8,0.4,1.1,0.6L80,52c-0.6-0.3-1.2-0.5-1.7-0.5   c-0.7,0-1.3,0.2-1.7,0.7c-0.5,0.5-0.7,1.1-0.7,1.9c0,0.8,0.2,1.4,0.7,1.9c0.5,0.5,1.1,0.7,1.9,0.7C79.1,56.6,79.7,56.4,80.3,56z"></path>
	<path fill="#FFFFFF" d="M81.1,51.6v-1.8h7.1v1.8h-2.6v6.7h-1.9v-6.7H81.1z"></path>
	<path fill="#FFFFFF" d="M91.1,58.3h-1.9v-8.5c0.1,0,0.6,0,1.2,0c0.7,0,1.1,0,1.4,0c1.2,0,2.1,0.3,2.6,0.8c0.5,0.5,0.8,1.2,0.8,2   c0,0.8-0.3,1.5-0.9,2c-0.6,0.6-1.3,0.8-2.3,0.8c-0.4,0-0.7,0-0.9,0V58.3z M92,51.6c0,0-0.3,0-0.9,0v1.9c0.3,0,0.6,0.1,0.9,0.1   c0.3,0,0.6-0.1,0.8-0.2c0.2-0.2,0.3-0.4,0.3-0.8C93.2,51.9,92.8,51.6,92,51.6z"></path>
	<path fill="#FFFFFF" d="M96,54c0-1.3,0.4-2.3,1.3-3.1s1.9-1.3,3.3-1.3c1.3,0,2.4,0.4,3.3,1.2c0.8,0.8,1.3,1.9,1.3,3.2c0,1.3-0.4,2.3-1.3,3.2   s-1.9,1.2-3.2,1.2c-1.3,0-2.4-0.4-3.3-1.2C96.4,56.4,96,55.4,96,54z M98,54c0,0.7,0.2,1.3,0.7,1.8c0.5,0.5,1.1,0.7,1.7,0.7   c0.8,0,1.4-0.2,1.8-0.7c0.4-0.5,0.6-1.1,0.6-1.9c0-0.8-0.2-1.4-0.7-1.9c-0.5-0.5-1.1-0.7-1.8-0.7c-0.7,0-1.3,0.2-1.8,0.7   C98.3,52.6,98,53.3,98,54z"></path>
	<path fill="#FFFFFF" d="M108.1,58.3h-1.7v-8.5h1.9v5.3l3.8-5.3h1.7v8.5h-1.9V53L108.1,58.3z M107.7,47.6h1.8c0,0.2,0.1,0.4,0.2,0.5   c0.1,0.1,0.3,0.1,0.6,0.1c0.3,0,0.4,0,0.5-0.1c0.1-0.1,0.2-0.2,0.2-0.5h1.8c0,0.6-0.2,1.1-0.7,1.4c-0.5,0.4-1.1,0.5-1.8,0.5   c-0.8,0-1.4-0.2-1.9-0.5C107.9,48.6,107.7,48.2,107.7,47.6z"></path>
	<path fill="#FFFFFF" d="M115.7,58.3v-8.5h1.9v3.7l2.8-3.7h2.3l-3.2,3.9l3.5,4.6h-2.5l-2.9-4.1v4.1H115.7z"></path>
	<path fill="#FFFFFF" d="M125.6,58.3h-1.7v-8.5h1.9v5.3l3.8-5.3h1.7v8.5h-1.9V53L125.6,58.3z"></path>
	<path fill="#FFFFFF" d="M135.5,58.3v-8.5h2l2.6,3.6l2.5-3.6h1.8v8.5h-1.9v-5.4l-2.4,3.3h-0.3l-2.4-3.3v5.4H135.5z"></path>
	<path fill="#FFFFFF" d="M148,58.3h-1.7v-8.5h1.9v5.3l3.8-5.3h1.7v8.5h-1.9V53L148,58.3z"></path>
	<path fill="#FFFFFF" d="M155.7,58.3v-8.5h1.9v3.7l2.8-3.7h2.3l-3.2,3.9l3.5,4.6h-2.5l-2.9-4.1v4.1H155.7z"></path>
	<path fill="#FFFFFF" d="M165.8,58.3h-1.9v-8.5c0.1,0,0.6,0,1.2,0c0.7,0,1.1,0,1.4,0c1.2,0,2.1,0.3,2.6,0.8c0.5,0.5,0.8,1.2,0.8,2   c0,0.8-0.3,1.5-0.9,2c-0.6,0.6-1.3,0.8-2.3,0.8c-0.4,0-0.7,0-0.9,0V58.3z M166.7,51.6c0,0-0.3,0-0.9,0v1.9c0.3,0,0.6,0.1,0.9,0.1   c0.3,0,0.6-0.1,0.8-0.2c0.2-0.2,0.3-0.4,0.3-0.8C167.9,51.9,167.5,51.6,166.7,51.6z"></path>
	<path fill="#FFFFFF" d="M170.7,54c0-1.3,0.4-2.3,1.3-3.1s1.9-1.3,3.3-1.3c1.3,0,2.4,0.4,3.3,1.2c0.8,0.8,1.3,1.9,1.3,3.2c0,1.3-0.4,2.3-1.3,3.2   s-1.9,1.2-3.2,1.2c-1.3,0-2.4-0.4-3.3-1.2C171.1,56.4,170.7,55.4,170.7,54z M172.7,54c0,0.7,0.2,1.3,0.7,1.8   c0.5,0.5,1.1,0.7,1.7,0.7c0.8,0,1.4-0.2,1.8-0.7c0.4-0.5,0.6-1.1,0.6-1.9c0-0.8-0.2-1.4-0.7-1.9c-0.5-0.5-1.1-0.7-1.8-0.7   c-0.7,0-1.3,0.2-1.8,0.7C173,52.6,172.7,53.3,172.7,54z"></path>
	<path fill="#FFFFFF" d="M183,58.3h-1.9v-8.5c0.1,0,0.6,0,1.2,0c0.7,0,1.1,0,1.4,0c1.2,0,2.1,0.3,2.6,0.8c0.5,0.5,0.8,1.2,0.8,2   c0,0.8-0.3,1.5-0.9,2c-0.6,0.6-1.3,0.8-2.3,0.8c-0.4,0-0.7,0-0.9,0V58.3z M183.9,51.6c0,0-0.3,0-0.9,0v1.9c0.3,0,0.6,0.1,0.9,0.1   c0.3,0,0.6-0.1,0.8-0.2c0.2-0.2,0.3-0.4,0.3-0.8C185,51.9,184.7,51.6,183.9,51.6z"></path>
	<path fill="#FFFFFF" d="M186.6,58.3l3.5-8.5h1.7l3.5,8.5h-2.1l-0.7-1.8h-3.4l-0.7,1.8H186.6z M190.9,52.3l-1,2.4h1.9L190.9,52.3z"></path>
	<path fill="#FFFFFF" d="M198,58.3h-1.7v-8.5h1.9v5.3l3.8-5.3h1.7v8.5h-1.9V53L198,58.3z M197.6,47.6h1.8c0,0.2,0.1,0.4,0.2,0.5   c0.1,0.1,0.3,0.1,0.6,0.1c0.3,0,0.4,0,0.5-0.1c0.1-0.1,0.2-0.2,0.2-0.5h1.8c0,0.6-0.2,1.1-0.7,1.4c-0.5,0.4-1.1,0.5-1.8,0.5   c-0.8,0-1.4-0.2-1.9-0.5C197.8,48.6,197.6,48.2,197.6,47.6z"></path>
	<path fill="#FFFFFF" d="M205,54c0-1.3,0.4-2.3,1.3-3.1s1.9-1.3,3.3-1.3c1.3,0,2.4,0.4,3.3,1.2c0.8,0.8,1.3,1.9,1.3,3.2c0,1.3-0.4,2.3-1.3,3.2   s-1.9,1.2-3.2,1.2c-1.3,0-2.4-0.4-3.3-1.2C205.4,56.4,205,55.4,205,54z M207.1,54c0,0.7,0.2,1.3,0.7,1.8c0.5,0.5,1.1,0.7,1.7,0.7   c0.8,0,1.4-0.2,1.8-0.7c0.4-0.5,0.6-1.1,0.6-1.9c0-0.8-0.2-1.4-0.7-1.9c-0.5-0.5-1.1-0.7-1.8-0.7c-0.7,0-1.3,0.2-1.8,0.7   C207.3,52.6,207.1,53.3,207.1,54z"></path>
	<path fill="#FFFFFF" d="M220.5,58.3v-3.4h-3.1v3.4h-1.9v-8.5h1.9V53h3.1v-3.3h1.9v8.5H220.5z"></path>
	<path fill="#FFFFFF" d="M223.8,54c0-1.3,0.4-2.3,1.3-3.1s1.9-1.3,3.3-1.3c1.3,0,2.4,0.4,3.3,1.2c0.8,0.8,1.3,1.9,1.3,3.2c0,1.3-0.4,2.3-1.3,3.2   s-1.9,1.2-3.2,1.2c-1.3,0-2.4-0.4-3.3-1.2C224.2,56.4,223.8,55.4,223.8,54z M225.8,54c0,0.7,0.2,1.3,0.7,1.8   c0.5,0.5,1.1,0.7,1.7,0.7c0.8,0,1.4-0.2,1.8-0.7c0.4-0.5,0.6-1.1,0.6-1.9c0-0.8-0.2-1.4-0.7-1.9c-0.5-0.5-1.1-0.7-1.8-0.7   c-0.7,0-1.3,0.2-1.8,0.7C226.1,52.6,225.8,53.3,225.8,54z"></path>
	<path fill="#FFFFFF" d="M234.2,58.3v-8.5c0.9,0,1.8-0.1,2.6-0.1c1,0,1.7,0.2,2.2,0.6s0.7,0.9,0.7,1.5c0,0.8-0.3,1.5-1,1.9v0   c0.3,0.1,0.6,0.4,0.9,0.7c0.2,0.3,0.3,0.7,0.3,1.3c0,0.9-0.3,1.5-0.9,2c-0.6,0.4-1.4,0.7-2.3,0.7C235.5,58.3,234.7,58.3,234.2,58.3   z M236.7,51.5c-0.1,0-0.3,0-0.6,0v1.5h0.6c0.6,0,0.9-0.3,0.9-0.8c0-0.2-0.1-0.4-0.3-0.6C237.2,51.6,237,51.5,236.7,51.5z    M236.9,54.8h-0.8v1.6c0.2,0,0.4,0.1,0.7,0.1c0.8,0,1.1-0.3,1.1-0.9C237.9,55.1,237.5,54.8,236.9,54.8z"></path>
</g>
<path class="st0" d="M24.3,0h-4.4v4.5h4.4V0z M27.9,29.4c1.5,1.8,4.4,4.3,4.4,6.6c0,6.1-10.7,11.7-15,14.8c-1.8,1.3-4,2.8-4,5.7  c0,4.8,5.4,4.6,8.8,4.7c0.2,0-2-1.2-2-2.8c-0.2-6.4,16.6-9.3,16.6-17.7v0c0-2.1-2.1-4.5-3.3-5.7c-1.5-1.6-2.5-3.3-2.5-6.4l0-15h-4.4  l0,13.7C26.5,27.5,27.1,28.5,27.9,29.4z M24.3,6.8h-4.4v4.4h4.4V6.8z M17.7,20.4c0-0.1,0-0.1-0.1-0.1h-4.2c-0.1,0-0.1,0-0.1,0.1v4.3  h4.4V20.4z M24.3,17.8v-4.3h-4.4v4.4h4.3C24.2,17.9,24.3,17.9,24.3,17.8z M44.1,45.9v-5.5H41c0,0.2,2.7,4.1,3,5.5H44.1z M37.5,27  h-4.4v4.4c1.5,0,2.9,0,4.4,0V27z M44.1,38.2c0-1.6,0-2.9,0-4.4c-1.5,0-2.9,0-4.5,0c0,1.9,0,3,0,4.4C41.1,38.2,42.6,38.2,44.1,38.2z   M26.9,59.5c0,0.1,0,0.1,0,0.2c0.3,1.4,1,1.9,3.9,1.9c2.6,0,3.8-0.2,4.6-0.4c5.2-1.5,8.4-6.6,8.1-11.5c-0.5-5.9-6-9.6-6-13.8v-2.1  h-3.4c1,4.1,5.7,6.2,5.7,10.7C39.9,51.7,26.8,54.9,26.9,59.5z M13.2,32.9C13.2,32.9,13.2,32.9,13.2,32.9c0.7-0.4,4.2-2.8,4.4-3.5V27  h-4.4V32.9z M37.5,20.4c0-0.1,0-0.1-0.1-0.1h-4.3v4.4h4.4V20.4z M0.1,43.9c0.4-1.2,3.1-3.4,3-3.4c-2.5,0-2.9,0-3.1,0  c0,0.3,0,2.8,0,3.4H0.1z M11,20.2H6.6v4.4H11V20.2z M11,27H6.6v4.4H11V27z M4.4,33.7H0v4.4h4.4V33.7z M0.7,52.5  c0,5.6,4.1,7.4,8.9,8.1c-0.6-0.6-2.9-0.9-2.9-4.8c0-1.7,0.4-3.4,1.5-4.9c3.5-5,21-12.9,20.5-18.3c-0.1-1.7-2.2-4.2-2.9-5.6  c-1-2.1-1.5-4.5-1.6-6.8c-1.4,0-2.9,0-4.3,0c0,2.2,0,4.4,0,6.6H20c1.2-1.8,1.8-3.6,1.9-5.8l0.8,0c0.1,1.3,0.6,2.6,1.1,3.8  c0.4,1.1,1.3,2.5,1.3,3.7c0.1,2.8-10.5,9.4-12.8,11C8.3,42.3,0.8,47.1,0.7,52.5z M6.6,33.7V38c0.3-0.2,4.4-3.5,4.4-3.5v-0.8H6.6z   M17.7,13.5h-4.4v4.4h4.4V13.5z M17.7,6.8h-4.4v4.4h4.4V6.8z M43.7,76c-0.3-0.5-0.6-0.8-1.2-1.1c-0.5-0.3-1.1-0.5-1.7-0.7V74  c0.5-0.1,1-0.3,1.5-0.5c0.8-0.4,1.5-1.2,1.5-2.5c0-2.4-2.2-4.5-6.6-4.5c-1.8,0-3.2,0.5-4.3,1c-0.6,0.3-1.1,0.6-1.5,1l1.9,3.1  c0.3-0.2,0.6-0.5,1-0.6c0.6-0.3,1.5-0.6,2.5-0.6c1.4,0,1.9,0.5,1.9,1.2c0,0.5-0.5,1.1-1.4,1.1h-2.5v3.7h2.8c0.9,0,1.5,0.6,1.5,1.2  c0,0.7-0.6,1.3-2.4,1.3c-1.1,0-2.1-0.4-2.9-0.8c-0.5-0.2-0.8-0.5-1.2-0.8l-1.9,3.1c0.5,0.4,1.1,0.8,1.8,1.1c1.1,0.6,2.7,1.1,4.7,1.1  c4.8,0,7-2.3,7-4.7C44.2,77.1,43.9,76.5,43.7,76z M21.5,66.4c-1.6,0-2.8,0.3-3.8,0.8c-0.5,0.2-1,0.5-1.4,0.8l1.9,3.1  c0.2-0.2,0.5-0.3,0.8-0.4c0.5-0.2,1.2-0.4,2-0.4c2,0,3.3,1.2,3.7,2.3h-4.5v3.7h4.7c-0.3,1.2-1.6,2.5-3.8,2.5c-0.9,0-1.6-0.3-2.2-0.5  c-0.3-0.2-0.6-0.3-0.9-0.5l-1.9,3.1c0.4,0.3,0.9,0.6,1.5,0.9c0.9,0.4,2.3,0.9,4,0.9c5.2,0,8.7-3.5,8.7-8S26.8,66.4,21.5,66.4z   M10.9,66.9l-2.6,7.4H8.1l-2.8-7.4H0l4.5,11h2.1L4.9,82h5.2l6.1-15.2H10.9z"></path>
<g>
	<g>
		<path class="st1" d="M63.8,71.1l0.3,0.6c-0.2,0.2-0.5,0.4-0.9,0.6c-0.4,0.1-0.8,0.2-1.3,0.2c-1.1,0-1.9-0.3-2.6-1    c-0.7-0.7-1-1.5-1-2.6c0-1,0.3-1.9,0.9-2.6c0.6-0.7,1.5-1,2.5-1c0.9,0,1.6,0.2,2.1,0.7l-0.4,0.6c-0.5-0.3-1-0.5-1.7-0.5    c-0.8,0-1.4,0.3-1.9,0.8c-0.5,0.5-0.7,1.2-0.7,2c0,0.8,0.3,1.5,0.8,2s1.2,0.8,2,0.8C62.7,71.7,63.3,71.5,63.8,71.1z"></path>
		<path class="st1" d="M68.4,72.4v-3.8h-2.5v3.8h-0.8v-4.5h4v4.5H68.4z"></path>
		<path class="st1" d="M74.2,71.3l0.2,0.6c-0.4,0.4-1,0.6-1.7,0.6c-0.7,0-1.3-0.2-1.8-0.6s-0.7-1-0.7-1.7c0-0.7,0.2-1.2,0.6-1.7    c0.4-0.4,1-0.7,1.7-0.7c0.6,0,1.1,0.2,1.5,0.6c0.4,0.4,0.6,0.9,0.6,1.5c0,0.2,0,0.4-0.1,0.5h-3.5c0,0.4,0.2,0.8,0.5,1    s0.6,0.4,1.1,0.4C73.4,71.7,73.9,71.6,74.2,71.3z M72.6,68.5c-0.4,0-0.7,0.1-1,0.3c-0.3,0.2-0.4,0.5-0.5,0.9h2.7    c0-0.4-0.1-0.7-0.4-0.9C73.3,68.6,73,68.5,72.6,68.5z"></path>
		<path class="st1" d="M75.8,72.4v-4.5h0.8v3.8H79v-3.8h0.8v3.8h0.8v1.8h-0.8v-1.1H75.8z"></path>
		<path class="st1" d="M82.3,72.4h-0.8v-4.5h0.8v3.3l2.6-3.3h0.8v4.5h-0.8V69L82.3,72.4z"></path>
		<path class="st1" d="M87.3,68.8l-0.2-0.6c0.4-0.3,0.9-0.4,1.5-0.4c0.6,0,1.1,0.2,1.3,0.5s0.4,0.8,0.4,1.4v2.8h-0.8v-0.6    c-0.3,0.4-0.8,0.7-1.4,0.7c-0.4,0-0.7-0.1-1-0.4s-0.4-0.6-0.4-1c0-0.4,0.2-0.8,0.5-1c0.3-0.3,0.7-0.4,1.2-0.4    c0.5,0,0.9,0.1,1.1,0.3c0-0.5-0.1-0.8-0.2-1.1s-0.4-0.3-0.8-0.3C88.2,68.5,87.8,68.6,87.3,68.8z M88.4,71.7c0.4,0,0.8-0.2,1.2-0.6    v-0.6c-0.3-0.2-0.6-0.3-1-0.3c-0.3,0-0.5,0.1-0.7,0.2c-0.2,0.1-0.3,0.3-0.3,0.5c0,0.2,0.1,0.4,0.2,0.5    C88,71.7,88.2,71.7,88.4,71.7z"></path>
		<path class="st1" d="M94.8,72.4v-3.7h-1.6l-0.1,0.8c0,0.5-0.1,0.9-0.2,1.3c-0.1,0.4-0.2,0.7-0.3,0.9c-0.1,0.2-0.2,0.4-0.4,0.5    s-0.3,0.2-0.4,0.3c-0.2,0-0.3,0.1-0.5,0.1l-0.1-0.8c0.1,0,0.2,0,0.2,0c0.1,0,0.2-0.1,0.3-0.2c0.1-0.1,0.2-0.2,0.3-0.4    c0.1-0.2,0.1-0.4,0.2-0.7c0.1-0.3,0.1-0.7,0.1-1l0.1-1.4h3.1v4.5H94.8z"></path>
		<path class="st1" d="M97.8,72.4H97v-4.5h0.8v3.3l2.6-3.3h0.8v4.5h-0.8V69L97.8,72.4z"></path>
		<path class="st1" d="M104.2,72.5c-0.3,0-0.7-0.1-1.1-0.2c-0.4-0.1-0.6-0.3-0.8-0.4l0.4-0.6c0.2,0.1,0.4,0.3,0.6,0.4    s0.5,0.1,0.7,0.1c0.3,0,0.6-0.1,0.9-0.2c0.2-0.1,0.3-0.3,0.3-0.5c0-0.2-0.1-0.3-0.2-0.4c-0.2-0.1-0.4-0.2-0.6-0.2h-0.8v-0.6h0.7    c0.2,0,0.4-0.1,0.6-0.2c0.1-0.1,0.2-0.3,0.2-0.5c0-0.2-0.1-0.4-0.3-0.5c-0.2-0.1-0.4-0.2-0.7-0.2c-0.5,0-0.9,0.2-1.4,0.5l-0.3-0.6    c0.2-0.2,0.4-0.3,0.8-0.4c0.3-0.1,0.7-0.2,1-0.2c0.5,0,1,0.1,1.2,0.3c0.3,0.2,0.4,0.5,0.4,0.9c0,0.5-0.3,0.9-0.8,1.1v0    c0.3,0,0.5,0.1,0.7,0.3c0.2,0.2,0.2,0.4,0.2,0.7c0,0.4-0.2,0.7-0.5,1S104.7,72.5,104.2,72.5z"></path>
		<path class="st1" d="M108.1,72.4h-0.8v-4.5h0.8v3.3l2.6-3.3h0.8v4.5h-0.8V69L108.1,72.4z"></path>
		<path class="st1" d="M112.9,74.4v-6.5h0.8v0.5c0.2-0.2,0.4-0.3,0.7-0.5c0.3-0.1,0.6-0.2,0.9-0.2c0.6,0,1.1,0.2,1.5,0.6    c0.4,0.4,0.6,1,0.6,1.6c0,0.7-0.2,1.3-0.6,1.7c-0.4,0.5-1,0.7-1.7,0.7c-0.5,0-1-0.1-1.3-0.3v2.2H112.9z M115,68.5    c-0.5,0-1,0.2-1.3,0.6v2.2c0.3,0.2,0.7,0.3,1.2,0.3c0.5,0,0.9-0.2,1.1-0.5s0.4-0.7,0.4-1.2c0-0.5-0.1-0.8-0.4-1.1    C115.9,68.7,115.5,68.5,115,68.5z"></path>
		<path class="st1" d="M118.9,71.8c-0.4-0.4-0.7-1-0.7-1.7s0.2-1.2,0.7-1.7s1-0.7,1.7-0.7c0.7,0,1.3,0.2,1.7,0.7s0.7,1,0.7,1.7    s-0.2,1.2-0.7,1.7c-0.4,0.4-1,0.7-1.7,0.7C119.9,72.5,119.3,72.3,118.9,71.8z M119.1,70.1c0,0.5,0.1,0.8,0.4,1.2    c0.3,0.3,0.7,0.4,1.1,0.4c0.5,0,0.8-0.1,1.1-0.4c0.3-0.3,0.4-0.7,0.4-1.2c0-0.5-0.1-0.8-0.4-1.2c-0.3-0.3-0.7-0.4-1.1-0.4    c-0.4,0-0.8,0.1-1.1,0.4C119.2,69.3,119.1,69.7,119.1,70.1z"></path>
		<path class="st1" d="M124.2,72.4v-4.5c0.1,0,0.3,0,0.7,0c0.4,0,0.7,0,0.9,0c1.3,0,1.9,0.4,1.9,1.2c0,0.3-0.1,0.5-0.2,0.7    c-0.2,0.2-0.4,0.3-0.7,0.3v0c0.7,0.1,1.1,0.5,1.1,1.1c0,0.9-0.7,1.3-2.1,1.3c-0.2,0-0.5,0-0.9,0C124.5,72.4,124.3,72.4,124.2,72.4    z M125.8,68.5c-0.2,0-0.5,0-0.9,0v1.3h1c0.3,0,0.5-0.1,0.7-0.2c0.2-0.1,0.2-0.3,0.2-0.5C126.9,68.7,126.5,68.5,125.8,68.5z     M125.9,70.4h-1v1.4c0.5,0,0.8,0,0.9,0c0.8,0,1.1-0.2,1.1-0.7C127,70.6,126.7,70.4,125.9,70.4z"></path>
		<path class="st1" d="M129.3,68.8l-0.2-0.6c0.4-0.3,0.9-0.4,1.5-0.4c0.6,0,1.1,0.2,1.3,0.5s0.4,0.8,0.4,1.4v2.8h-0.8v-0.6    c-0.3,0.4-0.8,0.7-1.4,0.7c-0.4,0-0.7-0.1-1-0.4c-0.3-0.2-0.4-0.6-0.4-1c0-0.4,0.2-0.8,0.5-1c0.3-0.3,0.7-0.4,1.2-0.4    c0.5,0,0.9,0.1,1.1,0.3c0-0.5-0.1-0.8-0.2-1.1c-0.1-0.2-0.4-0.3-0.8-0.3C130.2,68.5,129.8,68.6,129.3,68.8z M130.4,71.7    c0.4,0,0.8-0.2,1.2-0.6v-0.6c-0.3-0.2-0.6-0.3-1-0.3c-0.3,0-0.5,0.1-0.7,0.2c-0.2,0.1-0.3,0.3-0.3,0.5c0,0.2,0.1,0.4,0.2,0.5    S130.2,71.7,130.4,71.7z"></path>
		<path class="st1" d="M137,72.4v-1.9h-2.5v1.9h-0.8v-4.5h0.8v1.8h2.5v-1.8h0.8v4.5H137z"></path>
		<path class="st1" d="M142.5,72.4v-1.9H140v1.9h-0.8v-4.5h0.8v1.8h2.5v-1.8h0.8v4.5H142.5z"></path>
		<path class="st1" d="M144.8,72.4v-4.5h0.8v1.3h0.7c0.6,0,1.1,0.1,1.4,0.4s0.4,0.7,0.4,1.1c0,0.5-0.1,0.8-0.4,1.1s-0.8,0.5-1.4,0.5    H144.8z M146.2,70h-0.6v1.7h0.6c0.4,0,0.7-0.1,0.8-0.2c0.2-0.1,0.3-0.3,0.3-0.6C147.3,70.3,146.9,70,146.2,70z M149,72.4v-4.5h0.8    v4.5H149z"></path>
		<path class="st1" d="M152,72.4h-0.8v-4.5h0.8v3.3l2.6-3.3h0.8v4.5h-0.8V69L152,72.4z M151.9,65.6h0.8c0,0.5,0.3,0.8,0.8,0.8    c0.4,0,0.7-0.3,0.7-0.8h0.8c0,0.4-0.1,0.7-0.4,1s-0.6,0.4-1.1,0.4c-0.5,0-0.9-0.1-1.1-0.4S151.9,66,151.9,65.6z"></path>
		<path class="st1" d="M60.1,82.5c-0.3,0-0.7-0.1-1.1-0.2c-0.4-0.1-0.6-0.3-0.8-0.4l0.4-0.6c0.2,0.1,0.4,0.3,0.6,0.4    s0.5,0.1,0.7,0.1c0.3,0,0.6-0.1,0.9-0.2c0.2-0.1,0.3-0.3,0.3-0.5c0-0.2-0.1-0.3-0.2-0.4c-0.2-0.1-0.4-0.2-0.6-0.2h-0.8v-0.6h0.7    c0.2,0,0.4-0.1,0.6-0.2c0.1-0.1,0.2-0.3,0.2-0.5c0-0.2-0.1-0.4-0.3-0.5c-0.2-0.1-0.4-0.2-0.7-0.2c-0.5,0-0.9,0.2-1.4,0.5l-0.3-0.6    c0.2-0.2,0.4-0.3,0.8-0.4c0.3-0.1,0.7-0.2,1-0.2c0.5,0,1,0.1,1.2,0.3c0.3,0.2,0.4,0.5,0.4,0.9c0,0.5-0.3,0.9-0.8,1.1v0    c0.3,0,0.5,0.1,0.7,0.3c0.2,0.2,0.2,0.4,0.2,0.7c0,0.4-0.2,0.7-0.5,1S60.6,82.5,60.1,82.5z"></path>
		<path class="st1" d="M63.4,78.8l-0.2-0.6c0.4-0.3,0.9-0.4,1.5-0.4c0.6,0,1.1,0.2,1.3,0.5s0.4,0.8,0.4,1.4v2.8h-0.8v-0.6    c-0.3,0.4-0.8,0.7-1.4,0.7c-0.4,0-0.7-0.1-1-0.4s-0.4-0.6-0.4-1c0-0.4,0.2-0.8,0.5-1c0.3-0.3,0.7-0.4,1.2-0.4    c0.5,0,0.9,0.1,1.1,0.3c0-0.5-0.1-0.8-0.2-1.1s-0.4-0.3-0.8-0.3C64.3,78.5,63.9,78.6,63.4,78.8z M64.5,81.7c0.4,0,0.8-0.2,1.2-0.6    v-0.6c-0.3-0.2-0.6-0.3-1-0.3c-0.3,0-0.5,0.1-0.7,0.2c-0.2,0.1-0.3,0.3-0.3,0.5c0,0.2,0.1,0.4,0.2,0.5    C64.1,81.7,64.3,81.7,64.5,81.7z"></path>
		<path class="st1" d="M71.3,81.2l0.4,0.6c-0.2,0.2-0.4,0.4-0.7,0.6s-0.6,0.2-1,0.2c-0.7,0-1.3-0.2-1.7-0.6s-0.7-1-0.7-1.7    c0-0.7,0.2-1.2,0.6-1.7c0.4-0.5,1-0.7,1.6-0.7c0.8,0,1.4,0.2,1.8,0.6L71.2,79c-0.3-0.3-0.8-0.5-1.3-0.5c-0.4,0-0.8,0.2-1.1,0.5    c-0.3,0.3-0.5,0.7-0.5,1.1c0,0.5,0.2,0.9,0.5,1.2s0.7,0.4,1.2,0.4C70.5,81.7,70.9,81.5,71.3,81.2z"></path>
		<path class="st1" d="M72,78.7v-0.8h4.1v0.8h-1.6v3.7h-0.8v-3.7H72z"></path>
		<path class="st1" d="M77,84.4v-6.5h0.8v0.5c0.2-0.2,0.4-0.3,0.7-0.5c0.3-0.1,0.6-0.2,0.9-0.2c0.6,0,1.1,0.2,1.5,0.6    c0.4,0.4,0.6,1,0.6,1.6c0,0.7-0.2,1.3-0.6,1.7c-0.4,0.5-1,0.7-1.7,0.7c-0.5,0-1-0.1-1.3-0.3v2.2H77z M79.1,78.5    c-0.5,0-1,0.2-1.3,0.6v2.2c0.3,0.2,0.7,0.3,1.2,0.3c0.5,0,0.9-0.2,1.1-0.5s0.4-0.7,0.4-1.2c0-0.5-0.1-0.8-0.4-1.1    C79.9,78.7,79.6,78.5,79.1,78.5z"></path>
		<path class="st1" d="M82.9,81.8c-0.4-0.4-0.7-1-0.7-1.7s0.2-1.2,0.7-1.7s1-0.7,1.7-0.7s1.3,0.2,1.7,0.7c0.4,0.4,0.7,1,0.7,1.7    s-0.2,1.2-0.7,1.7c-0.4,0.4-1,0.7-1.7,0.7S83.4,82.3,82.9,81.8z M83.1,80.1c0,0.5,0.1,0.8,0.4,1.2c0.3,0.3,0.7,0.4,1.1,0.4    c0.5,0,0.8-0.1,1.1-0.4s0.4-0.7,0.4-1.2c0-0.5-0.1-0.8-0.4-1.2c-0.3-0.3-0.7-0.4-1.1-0.4c-0.4,0-0.8,0.1-1.1,0.4    C83.3,79.3,83.1,79.7,83.1,80.1z"></path>
		<path class="st1" d="M89,82.4h-0.8v-4.5H89v3.3l2.6-3.3h0.8v4.5h-0.8V79L89,82.4z M88.9,75.6h0.8c0,0.5,0.3,0.8,0.8,0.8    c0.4,0,0.7-0.3,0.7-0.8h0.8c0,0.4-0.1,0.7-0.4,1c-0.3,0.3-0.6,0.4-1.1,0.4c-0.5,0-0.9-0.1-1.1-0.4S88.9,76,88.9,75.6z"></path>
		<path class="st1" d="M93.9,82.4v-4.5h0.8v3.8h1.6v-3.8h0.8v3.8h1.6v-3.8h0.8v3.8h0.8v1.8h-0.8v-1.1H93.9z"></path>
		<path class="st1" d="M102,82.4h-0.8v-4.5h0.8v3.3l2.6-3.3h0.8v4.5h-0.8V79L102,82.4z"></path>
		<path class="st1" d="M106.8,82.4v-4.5h0.8v4.5H106.8z M110.8,77.9l-2,2.2l2.2,2.3h-1.1l-2-2.3l1.9-2.2H110.8z"></path>
	</g>
</g>
</svg>
