<?xml version="1.0" encoding="UTF-8"?>
<svg xmlns="http://www.w3.org/2000/svg" viewBox="0 0 1024 1024"><rect x="100" y="100" width="824" height="824" rx="185" fill="#016BB2"/><g transform="translate(378.5,262) scale(6.0459)"><path fill="#ffffff" d="M24.3,0h-4.4v4.5h4.4V0z M27.9,29.4c1.5,1.8,4.4,4.3,4.4,6.6c0,6.1-10.7,11.7-15,14.8c-1.8,1.3-4,2.8-4,5.7  c0,4.8,5.4,4.6,8.8,4.7c0.2,0-2-1.2-2-2.8c-0.2-6.4,16.6-9.3,16.6-17.7v0c0-2.1-2.1-4.5-3.3-5.7c-1.5-1.6-2.5-3.3-2.5-6.4l0-15h-4.4  l0,13.7C26.5,27.5,27.1,28.5,27.9,29.4z M24.3,6.8h-4.4v4.4h4.4V6.8z M17.7,20.4c0-0.1,0-0.1-0.1-0.1h-4.2c-0.1,0-0.1,0-0.1,0.1v4.3  h4.4V20.4z M24.3,17.8v-4.3h-4.4v4.4h4.3C24.2,17.9,24.3,17.9,24.3,17.8z M44.1,45.9v-5.5H41c0,0.2,2.7,4.1,3,5.5H44.1z M37.5,27  h-4.4v4.4c1.5,0,2.9,0,4.4,0V27z M44.1,38.2c0-1.6,0-2.9,0-4.4c-1.5,0-2.9,0-4.5,0c0,1.9,0,3,0,4.4C41.1,38.2,42.6,38.2,44.1,38.2z   M26.9,59.5c0,0.1,0,0.1,0,0.2c0.3,1.4,1,1.9,3.9,1.9c2.6,0,3.8-0.2,4.6-0.4c5.2-1.5,8.4-6.6,8.1-11.5c-0.5-5.9-6-9.6-6-13.8v-2.1  h-3.4c1,4.1,5.7,6.2,5.7,10.7C39.9,51.7,26.8,54.9,26.9,59.5z M13.2,32.9C13.2,32.9,13.2,32.9,13.2,32.9c0.7-0.4,4.2-2.8,4.4-3.5V27  h-4.4V32.9z M37.5,20.4c0-0.1,0-0.1-0.1-0.1h-4.3v4.4h4.4V20.4z M0.1,43.9c0.4-1.2,3.1-3.4,3-3.4c-2.5,0-2.9,0-3.1,0  c0,0.3,0,2.8,0,3.4H0.1z M11,20.2H6.6v4.4H11V20.2z M11,27H6.6v4.4H11V27z M4.4,33.7H0v4.4h4.4V33.7z M0.7,52.5  c0,5.6,4.1,7.4,8.9,8.1c-0.6-0.6-2.9-0.9-2.9-4.8c0-1.7,0.4-3.4,1.5-4.9c3.5-5,21-12.9,20.5-18.3c-0.1-1.7-2.2-4.2-2.9-5.6  c-1-2.1-1.5-4.5-1.6-6.8c-1.4,0-2.9,0-4.3,0c0,2.2,0,4.4,0,6.6H20c1.2-1.8,1.8-3.6,1.9-5.8l0.8,0c0.1,1.3,0.6,2.6,1.1,3.8  c0.4,1.1,1.3,2.5,1.3,3.7c0.1,2.8-10.5,9.4-12.8,11C8.3,42.3,0.8,47.1,0.7,52.5z M6.6,33.7V38c0.3-0.2,4.4-3.5,4.4-3.5v-0.8H6.6z   M17.7,13.5h-4.4v4.4h4.4V13.5z M17.7,6.8h-4.4v4.4h4.4V6.8z M43.7,76c-0.3-0.5-0.6-0.8-1.2-1.1c-0.5-0.3-1.1-0.5-1.7-0.7V74  c0.5-0.1,1-0.3,1.5-0.5c0.8-0.4,1.5-1.2,1.5-2.5c0-2.4-2.2-4.5-6.6-4.5c-1.8,0-3.2,0.5-4.3,1c-0.6,0.3-1.1,0.6-1.5,1l1.9,3.1  c0.3-0.2,0.6-0.5,1-0.6c0.6-0.3,1.5-0.6,2.5-0.6c1.4,0,1.9,0.5,1.9,1.2c0,0.5-0.5,1.1-1.4,1.1h-2.5v3.7h2.8c0.9,0,1.5,0.6,1.5,1.2  c0,0.7-0.6,1.3-2.4,1.3c-1.1,0-2.1-0.4-2.9-0.8c-0.5-0.2-0.8-0.5-1.2-0.8l-1.9,3.1c0.5,0.4,1.1,0.8,1.8,1.1c1.1,0.6,2.7,1.1,4.7,1.1  c4.8,0,7-2.3,7-4.7C44.2,77.1,43.9,76.5,43.7,76z M21.5,66.4c-1.6,0-2.8,0.3-3.8,0.8c-0.5,0.2-1,0.5-1.4,0.8l1.9,3.1  c0.2-0.2,0.5-0.3,0.8-0.4c0.5-0.2,1.2-0.4,2-0.4c2,0,3.3,1.2,3.7,2.3h-4.5v3.7h4.7c-0.3,1.2-1.6,2.5-3.8,2.5c-0.9,0-1.6-0.3-2.2-0.5  c-0.3-0.2-0.6-0.3-0.9-0.5l-1.9,3.1c0.4,0.3,0.9,0.6,1.5,0.9c0.9,0.4,2.3,0.9,4,0.9c5.2,0,8.7-3.5,8.7-8S26.8,66.4,21.5,66.4z   M10.9,66.9l-2.6,7.4H8.1l-2.8-7.4H0l4.5,11h2.1L4.9,82h5.2l6.1-15.2H10.9z"/></g></svg>
